<svg data-v-423bf9ae="" xmlns="http://www.w3.org/2000/svg" viewBox="0 0 535 90" class="iconLeft"><!----><!----><!----><g data-v-423bf9ae="" id="dfeb7b6c-e9fe-4285-bdac-4a7a41abe4c2" fill="#1F1E1A" transform="matrix(4.66562963859453,0,0,4.66562963859453,184.6177257957561,-0.4898898502508757)"><path d="M2.13 13.33L1.50 13.33L1.50 13.33Q1.16 13.33 1.16 12.95L1.16 12.95L1.16 3.90L1.16 3.90Q1.16 3.53 1.50 3.53L1.50 3.53L2.96 3.53L2.96 3.53Q3.22 3.53 3.35 3.94L3.35 3.94L5.30 10.07L5.30 10.07Q5.61 11.01 5.66 11.21L5.66 11.21L5.66 11.21Q5.71 11.40 5.82 11.92L5.82 11.92L5.86 11.92L5.86 11.92Q5.96 11.40 6.02 11.21L6.02 11.21L6.02 11.21Q6.07 11.01 6.37 10.07L6.37 10.07L8.33 3.94L8.33 3.94Q8.46 3.53 8.72 3.53L8.72 3.53L10.17 3.53L10.17 3.53Q10.51 3.53 10.51 3.90L10.51 3.90L10.51 12.95L10.51 12.95Q10.51 13.33 10.17 13.33L10.17 13.33L9.54 13.33L9.54 13.33Q9.20 13.33 9.20 12.95L9.20 12.95L9.20 5.78L9.20 5.78Q9.20 5.51 9.21 5.24L9.21 5.24L9.19 5.24L6.67 12.91L6.67 12.91Q6.53 13.33 6.21 13.33L6.21 13.33L5.46 13.33L5.46 13.33Q5.15 13.33 5.01 12.91L5.01 12.91L2.49 5.24L2.46 5.24L2.46 5.24Q2.47 5.51 2.47 5.78L2.47 5.78L2.47 12.95L2.47 12.95Q2.47 13.33 2.13 13.33L2.13 13.33ZM13.81 13.33L13.18 13.33L13.18 13.33Q12.84 13.33 12.84 12.95L12.84 12.95L12.84 3.90L12.84 3.90Q12.84 3.53 13.18 3.53L13.18 3.53L16.48 3.53L16.48 3.53Q18.46 3.53 19.34 4.27L19.34 4.27L19.34 4.27Q20.23 5.00 20.23 6.21L20.23 6.21L20.23 6.21Q20.23 7.28 19.51 8.00L19.51 8.00L19.51 8.00Q18.80 8.73 17.48 8.84L17.48 8.84L17.48 8.85L17.48 8.85Q18.18 9.37 18.40 9.64L18.40 9.64L18.40 9.64Q18.63 9.91 18.91 10.37L18.91 10.37L20.45 12.88L20.45 12.88Q20.73 13.33 20.33 13.33L20.33 13.33L19.55 13.33L19.55 13.33Q19.23 13.33 19.07 13.06L19.07 13.06L17.65 10.62L17.65 10.62Q17.34 10.10 16.77 9.59L16.77 9.59L16.77 9.59Q16.19 9.08 15.34 9.08L15.34 9.08L14.15 9.08L14.15 12.95L14.15 12.95Q14.15 13.33 13.81 13.33L13.81 13.33ZM14.15 4.65L14.15 7.96L16.13 7.96L16.13 7.96Q17.46 7.96 18.18 7.61L18.18 7.61L18.18 7.61Q18.89 7.26 18.89 6.13L18.89 6.13L18.89 6.13Q18.89 5.27 18.24 4.96L18.24 4.96L18.24 4.96Q17.58 4.65 16.45 4.65L16.45 4.65L14.15 4.65ZM23.34 13.33L22.71 13.33L22.71 13.33Q22.37 13.33 22.37 12.95L22.37 12.95L22.37 3.90L22.37 3.90Q22.37 3.53 22.71 3.53L22.71 3.53L25.58 3.53L25.58 3.53Q27.90 3.53 28.72 4.31L28.72 4.31L28.72 4.31Q29.53 5.09 29.53 6.46L29.53 6.46L29.53 6.46Q29.53 7.83 28.72 8.61L28.72 8.61L28.72 8.61Q27.90 9.39 25.58 9.39L25.58 9.39L23.68 9.39L23.68 12.95L23.68 12.95Q23.68 13.33 23.34 13.33L23.34 13.33ZM23.68 4.65L23.68 8.27L25.60 8.27L25.60 8.27Q27.10 8.27 27.65 7.84L27.65 7.84L27.65 7.84Q28.20 7.42 28.20 6.46L28.20 6.46L28.20 6.46Q28.20 5.50 27.65 5.08L27.65 5.08L27.65 5.08Q27.10 4.65 25.60 4.65L25.60 4.65L23.68 4.65ZM31.11 12.59L31.11 12.59L31.11 12.59Q30.75 12.26 30.92 12.02L30.92 12.02L31.27 11.50L31.27 11.50Q31.46 11.24 31.87 11.55L31.87 11.55L31.87 11.55Q32.41 11.95 32.99 12.21L32.99 12.21L32.99 12.21Q33.58 12.47 34.41 12.47L34.41 12.47L34.41 12.47Q35.03 12.47 35.45 12.28L35.45 12.28L35.45 12.28Q35.88 12.10 36.13 11.75L36.13 11.75L36.13 11.75Q36.39 11.41 36.39 10.92L36.39 10.92L36.39 10.92Q36.39 10.56 36.28 10.26L36.28 10.26L36.28 10.26Q36.18 9.95 35.94 9.75L35.94 9.75L35.94 9.75Q35.71 9.54 35.46 9.43L35.46 9.43L35.46 9.43Q35.04 9.24 34.21 8.98L34.21 8.98L34.21 8.98Q33.38 8.73 32.76 8.44L32.76 8.44L32.76 8.44Q32.14 8.14 31.78 7.72L31.78 7.72L31.78 7.72Q31.41 7.31 31.29 6.87L31.29 6.87L31.29 6.87Q31.17 6.43 31.17 5.86L31.17 5.86L31.17 5.86Q31.17 4.99 31.68 4.36L31.68 4.36L31.68 4.36Q32.18 3.73 32.92 3.53L32.92 3.53L32.92 3.53Q33.65 3.32 34.41 3.32L34.41 3.32L34.41 3.32Q35.28 3.32 35.92 3.55L35.92 3.55L35.92 3.55Q36.57 3.77 37.07 4.14L37.07 4.14L37.07 4.14Q37.43 4.39 37.24 4.67L37.24 4.67L36.89 5.17L36.89 5.17Q36.73 5.39 36.27 5.07L36.27 5.07L36.27 5.07Q35.92 4.83 35.42 4.61L35.42 4.61L35.42 4.61Q34.92 4.40 34.43 4.40L34.43 4.40L34.43 4.40Q33.80 4.40 33.38 4.54L33.38 4.54L33.38 4.54Q32.96 4.69 32.72 5.04L32.72 5.04L32.72 5.04Q32.48 5.39 32.48 5.84L32.48 5.84L32.48 5.84Q32.48 6.13 32.54 6.37L32.54 6.37L32.54 6.37Q32.59 6.62 32.82 6.87L32.82 6.87L32.82 6.87Q33.04 7.12 33.37 7.26L33.37 7.26L33.37 7.26Q33.80 7.44 34.70 7.69L34.70 7.69L34.70 7.69Q35.61 7.94 36.29 8.31L36.29 8.31L36.29 8.31Q36.91 8.64 37.19 9.01L37.19 9.01L37.19 9.01Q37.47 9.37 37.62 9.80L37.62 9.80L37.62 9.80Q37.78 10.23 37.78 10.76L37.78 10.76L37.78 10.76Q37.78 11.73 37.28 12.38L37.28 12.38L37.28 12.38Q36.78 13.03 36.09 13.28L36.09 13.28L36.09 13.28Q35.41 13.54 34.38 13.54L34.38 13.54L34.38 13.54Q33.14 13.54 32.33 13.25L32.33 13.25L32.33 13.25Q31.51 12.96 31.11 12.59ZM41.33 13.34L38.86 6.49L38.86 6.49Q38.74 6.15 39.05 6.15L39.05 6.15L39.79 6.15L39.79 6.15Q40.02 6.15 40.10 6.42L40.10 6.42L41.54 10.93L41.54 10.93Q41.60 11.12 41.72 11.51L41.72 11.51L41.72 11.51Q41.85 11.90 41.90 12.21L41.90 12.21L41.92 12.21L41.92 12.21Q41.97 11.90 42.05 11.65L42.05 11.65L42.05 11.65Q42.13 11.40 42.29 10.93L42.29 10.93L43.74 6.42L43.74 6.42Q43.83 6.15 44.04 6.15L44.04 6.15L44.79 6.15L44.79 6.15Q45.10 6.15 44.97 6.49L44.97 6.49L42.67 12.91L42.67 12.91Q42.02 14.72 41.51 15.45L41.51 15.45L41.51 15.45Q41.00 16.18 39.98 16.18L39.98 16.18L39.98 16.18Q39.44 16.18 39.13 16.02L39.13 16.02L39.13 16.02Q38.99 15.96 39.03 15.81L39.03 15.81L39.21 15.26L39.21 15.26Q39.26 15.11 39.40 15.18L39.40 15.18L39.40 15.18Q39.68 15.29 39.94 15.29L39.94 15.29L39.94 15.29Q40.41 15.29 40.71 14.78L40.71 14.78L40.71 14.78Q41.02 14.26 41.19 13.74L41.19 13.74L41.33 13.34ZM45.85 12.66L45.85 12.66L45.85 12.66Q45.64 12.46 45.76 12.29L45.76 12.29L46.07 11.86L46.07 11.86Q46.22 11.66 46.51 11.88L46.51 11.88L46.51 11.88Q46.92 12.19 47.41 12.37L47.41 12.37L47.41 12.37Q47.91 12.56 48.54 12.56L48.54 12.56L48.54 12.56Q48.92 12.56 49.21 12.47L49.21 12.47L49.21 12.47Q49.51 12.37 49.73 12.12L49.73 12.12L49.73 12.12Q49.95 11.87 49.95 11.44L49.95 11.44L49.95 11.44Q49.95 11.20 49.84 10.98L49.84 10.98L49.84 10.98Q49.74 10.76 49.52 10.63L49.52 10.63L49.52 10.63Q49.29 10.49 49.08 10.42L49.08 10.42L49.08 10.42Q48.73 10.29 48.39 10.20L48.39 10.20L48.39 10.20Q48.04 10.12 47.48 9.94L47.48 9.94L47.48 9.94Q47.11 9.82 46.77 9.61L46.77 9.61L46.77 9.61Q46.44 9.39 46.19 9.02L46.19 9.02L46.19 9.02Q45.94 8.65 45.94 8.00L45.94 8.00L45.94 8.00Q45.94 7.34 46.34 6.86L46.34 6.86L46.34 6.86Q46.74 6.38 47.35 6.21L47.35 6.21L47.35 6.21Q47.96 6.04 48.54 6.04L48.54 6.04L48.54 6.04Q49.38 6.04 49.90 6.23L49.90 6.23L49.90 6.23Q50.42 6.43 50.79 6.69L50.79 6.69L50.79 6.69Q51.01 6.85 50.85 7.05L50.85 7.05L50.54 7.46L50.54 7.46Q50.40 7.66 50.10 7.45L50.10 7.45L50.10 7.45Q49.85 7.27 49.38 7.12L49.38 7.12L49.38 7.12Q48.92 6.96 48.57 6.96L48.57 6.96L48.57 6.96Q48.14 6.96 47.83 7.05L47.83 7.05L47.83 7.05Q47.52 7.15 47.33 7.38L47.33 7.38L47.33 7.38Q47.14 7.62 47.14 7.93L47.14 7.93L47.14 7.93Q47.14 8.17 47.22 8.36L47.22 8.36L47.22 8.36Q47.29 8.54 47.50 8.70L47.50 8.70L47.50 8.70Q47.70 8.86 48.07 8.96L48.07 8.96L48.07 8.96Q48.64 9.11 49.12 9.23L49.12 9.23L49.12 9.23Q49.59 9.35 49.98 9.53L49.98 9.53L49.98 9.53Q50.48 9.76 50.75 10.04L50.75 10.04L50.75 10.04Q51.02 10.32 51.12 10.65L51.12 10.65L51.12 10.65Q51.22 10.97 51.22 11.37L51.22 11.37L51.22 11.37Q51.22 12.10 50.79 12.61L50.79 12.61L50.79 12.61Q50.35 13.11 49.82 13.28L49.82 13.28L49.82 13.28Q49.29 13.45 48.54 13.45L48.54 13.45L48.54 13.45Q47.52 13.45 46.79 13.16L46.79 13.16L46.79 13.16Q46.06 12.87 45.85 12.66ZM53.16 7.05L52.36 7.05L52.36 7.05Q52.05 7.05 52.05 6.82L52.05 6.82L52.05 6.39L52.05 6.39Q52.05 6.15 52.36 6.15L52.36 6.15L53.16 6.15L53.16 5.54L53.16 5.54Q53.16 5.40 53.23 5.28L53.23 5.28L53.71 4.41L53.71 4.41Q53.84 4.17 53.92 4.17L53.92 4.17L54.16 4.17L54.16 4.17Q54.37 4.17 54.37 4.41L54.37 4.41L54.37 6.15L55.82 6.15L55.82 6.15Q56.13 6.15 56.13 6.39L56.13 6.39L56.13 6.82L56.13 6.82Q56.13 7.05 55.82 7.05L55.82 7.05L54.37 7.05L54.37 11.41L54.37 11.41Q54.37 12.13 54.58 12.34L54.58 12.34L54.58 12.34Q54.80 12.56 55.10 12.56L55.10 12.56L55.10 12.56Q55.33 12.56 55.65 12.42L55.65 12.42L55.65 12.42Q55.98 12.28 56.10 12.19L56.10 12.19L56.10 12.19Q56.23 12.09 56.29 12.25L56.29 12.25L56.52 12.78L56.52 12.78Q56.57 12.91 56.44 13.00L56.44 13.00L56.44 13.00Q56.17 13.15 55.66 13.30L55.66 13.30L55.66 13.30Q55.15 13.45 54.63 13.45L54.63 13.45L54.63 13.45Q53.92 13.45 53.54 12.93L53.54 12.93L53.54 12.93Q53.16 12.42 53.16 11.48L53.16 11.48L53.16 7.05ZM57.49 9.74L57.49 9.74L57.49 9.74Q57.49 8.05 58.34 7.04L58.34 7.04L58.34 7.04Q59.19 6.04 60.76 6.04L60.76 6.04L60.76 6.04Q62.08 6.04 62.94 6.96L62.94 6.96L62.94 6.96Q63.81 7.88 63.81 9.89L63.81 9.89L63.81 9.89Q63.81 10.20 63.53 10.20L63.53 10.20L58.76 10.20L58.76 10.20Q58.88 11.52 59.47 12.03L59.47 12.03L59.47 12.03Q60.07 12.55 60.82 12.55L60.82 12.55L60.82 12.55Q61.61 12.55 62.04 12.28L62.04 12.28L62.04 12.28Q62.46 12.02 62.66 11.76L62.66 11.76L62.66 11.76Q62.88 11.47 63.08 11.65L63.08 11.65L63.49 12.00L63.49 12.00Q63.64 12.13 63.49 12.37L63.49 12.37L63.49 12.37Q63.36 12.57 62.74 13.01L62.74 13.01L62.74 13.01Q62.13 13.45 60.82 13.45L60.82 13.45L60.82 13.45Q59.11 13.45 58.30 12.44L58.30 12.44L58.30 12.44Q57.49 11.44 57.49 9.74ZM58.73 9.31L58.73 9.31L62.60 9.31L62.60 9.31Q62.57 8.35 62.10 7.63L62.10 7.63L62.10 7.63Q61.64 6.91 60.74 6.91L60.74 6.91L60.74 6.91Q59.94 6.91 59.39 7.44L59.39 7.44L59.39 7.44Q58.84 7.97 58.73 9.31ZM66.28 13.33L65.69 13.33L65.69 13.33Q65.39 13.33 65.39 13.02L65.39 13.02L65.39 6.46L65.39 6.46Q65.39 6.15 65.69 6.15L65.69 6.15L66.27 6.15L66.27 6.15Q66.58 6.15 66.58 6.46L66.58 6.46L66.58 7.01L66.60 7.01L66.60 7.01Q67.05 6.51 67.57 6.28L67.57 6.28L67.57 6.28Q68.09 6.04 68.56 6.04L68.56 6.04L68.56 6.04Q69.45 6.04 69.92 6.48L69.92 6.48L69.92 6.48Q70.40 6.92 70.53 7.36L70.53 7.36L70.56 7.36L70.56 7.36Q70.94 6.80 71.51 6.42L71.51 6.42L71.51 6.42Q72.08 6.04 72.73 6.04L72.73 6.04L72.73 6.04Q73.82 6.04 74.38 6.74L74.38 6.74L74.38 6.74Q74.93 7.44 74.93 8.65L74.93 8.65L74.93 13.02L74.93 13.02Q74.93 13.33 74.62 13.33L74.62 13.33L74.03 13.33L74.03 13.33Q73.73 13.33 73.73 13.02L73.73 13.02L73.73 9.05L73.73 9.05Q73.73 7.71 73.39 7.32L73.39 7.32L73.39 7.32Q73.06 6.92 72.36 6.92L72.36 6.92L72.36 6.92Q71.67 6.92 71.22 7.51L71.22 7.51L71.22 7.51Q70.76 8.09 70.76 9.27L70.76 9.27L70.76 13.02L70.76 13.02Q70.76 13.33 70.45 13.33L70.45 13.33L69.86 13.33L69.86 13.33Q69.56 13.33 69.56 13.02L69.56 13.02L69.56 9.05L69.56 9.05Q69.56 7.71 69.22 7.32L69.22 7.32L69.22 7.32Q68.89 6.92 68.19 6.92L68.19 6.92L68.19 6.92Q67.50 6.92 67.05 7.45L67.05 7.45L67.05 7.45Q66.59 7.98 66.59 9.27L66.59 9.27L66.59 13.02L66.59 13.02Q66.59 13.33 66.28 13.33L66.28 13.33Z"></path></g><defs data-v-423bf9ae=""><linearGradient data-v-423bf9ae="" gradientTransform="rotate(25)" id="e1376bd0-c562-4cb1-b4b6-5ee7473a6c05" x1="0%" y1="0%" x2="100%" y2="0%"><stop data-v-423bf9ae="" offset="0%" style="stop-color: rgb(9, 120, 166); stop-opacity: 1;"></stop><stop data-v-423bf9ae="" offset="100%" style="stop-color: rgb(251, 148, 71); stop-opacity: 1;"></stop></linearGradient></defs><g data-v-423bf9ae="" id="48101cf8-c67a-4b18-a7df-6e29bb538cb4" transform="matrix(2.0289957773974665,0,0,2.0289957773974665,-16.864289265777813,-55.13591439676708)" stroke="none" fill="url(#e1376bd0-c562-4cb1-b4b6-5ee7473a6c05)"><path d="M53.3 71.7h-25c-3.1 0-5.7-2.5-5.7-5.7V41.4c0-1.2 1-2.3 2.3-2.3h25.4c2.8 0 5.6-.5 8.2-1.5l26.9-10.1c.9-.4 2 0 2.6.8.6.8.6 1.9 0 2.7L57.7 69.6c-1.1 1.3-2.7 2.1-4.4 2.1zm-26.2-28v22.4c0 .6.5 1.2 1.2 1.2h25c.4 0 .7-.2.9-.4l25.3-32.1-19.4 7.3c-3.1 1.2-6.4 1.8-9.8 1.8H27.1z"></path><path d="M24.8 57.7c-.5 0-1.1-.2-1.5-.6l-14-12.6c-.5-.4-.7-1-.7-1.7V29.7c0-.9.5-1.7 1.3-2 .8-.4 1.7-.2 2.4.3l14 11.7c.5.4.8 1.1.8 1.7v14c0 .9-.5 1.7-1.3 2.1-.3.1-.7.2-1 .2zM13.1 41.9l9.5 8.5v-7.9l-9.5-7.9v7.3zM24.8 31.7h26.8v4.6H24.8z"></path><path d="M35.9 34.1h4.6v7.3h-4.6zM87.8 38.4s-4.2 6.1-4.2 9.2c0 3.1 1.4 5.2 4.2 5.2 2.8 0 4.6-2.1 4.6-5.2-.1-3.1-4.6-9.2-4.6-9.2z"></path></g><!----></svg>