<?xml version="1.0" encoding="iso-8859-1"?>
<!-- Generator: Adobe Illustrator 19.0.0, SVG Export Plug-In . SVG Version: 6.00 Build 0)  -->
<svg version="1.1" id="Capa_1" xmlns="http://www.w3.org/2000/svg" xmlns:xlink="http://www.w3.org/1999/xlink" x="0px" y="0px"
	 viewBox="0 0 211.627 211.627" style="enable-background:new 0 0 211.627 211.627;" xml:space="preserve">
<g>
	<g>
		<path d="M208.213,59.726H3.413C1.529,59.726,0,61.256,0,63.14v54.613c0,1.884,1.529,3.413,3.413,3.413H17.92v-6.827H6.827V66.553
			H204.8v47.787h-67.838v6.827h71.252c1.884,0,3.413-1.527,3.413-3.413V63.14C211.627,61.256,210.098,59.726,208.213,59.726z"/>
	</g>
</g>
<g>
	<g>
		<path d="M211.108,61.332L176.975,6.719c-0.625-0.998-1.719-1.604-2.895-1.604H37.547c-1.176,0-2.27,0.606-2.895,1.604
			L0.519,61.332c-0.657,1.051-0.693,2.379-0.09,3.463c0.602,1.084,1.742,1.758,2.985,1.758h204.8c1.242,0,2.384-0.674,2.985-1.758
			C211.799,63.711,211.765,62.384,211.108,61.332z M9.571,59.726L39.438,11.94h132.75l29.867,47.787H9.571z"/>
	</g>
</g>
<g>
	<g>
		<path d="M105.813,83.62H20.48c-1.884,0-3.413,1.529-3.413,3.413s1.529,3.413,3.413,3.413h85.333c1.884,0,3.413-1.529,3.413-3.413
			S107.698,83.62,105.813,83.62z"/>
	</g>
</g>
<g>
	<g>
		<path d="M149.953,150.596c-0.717-2.656-1.403-5.248-2.072-7.769c-6.18-23.33-10.644-40.187-22.468-43.687
			c-4.669-1.384-14.384-4.263-24.866,1.958c-8.24,4.89-35.84,4.886-44.08,0c-10.484-6.222-20.2-3.34-24.888-1.952
			c-11.802,3.494-16.266,20.35-22.446,43.68c-0.669,2.521-1.355,5.113-2.072,7.769c-5.495,20.342-5.466,39.685,0.07,49.277
			c1.964,3.405,4.545,5.552,7.668,6.381c0.643,0.171,1.287,0.253,1.93,0.253c7.436,0,14.956-10.892,22.252-21.448
			c3.113-4.511,6.33-9.172,8.071-10.522c1.208-0.939,5.847-3.081,22.596-2.865l20.871-0.015c14.283,0.065,18.355,2.036,19.444,2.881
			h0.002c1.739,1.35,4.958,6.011,8.071,10.522c7.926,11.474,16.131,23.366,24.18,21.197c3.123-0.829,5.704-2.976,7.668-6.381
			C155.419,190.281,155.448,170.938,149.953,150.596z M143.973,196.454c-1.026,1.775-2.207,2.852-3.511,3.198
			c-3.417,0.855-12.803-12.681-16.809-18.48c-3.872-5.608-6.932-10.039-9.504-12.035c-2.341-1.816-7.335-4.239-23.617-4.313
			l-20.84,0.015c-14.078-0.206-22.852,1.215-26.825,4.299c-2.574,1.997-5.632,6.427-9.506,12.035
			c-4.007,5.801-13.373,19.376-16.809,18.48c-1.304-0.346-2.485-1.423-3.511-3.198c-3.833-6.637-5.129-22.842,0.608-44.083
			c0.72-2.664,1.41-5.27,2.08-7.799c5.4-20.379,9.665-36.477,17.809-38.888c2.169-0.642,5.338-1.582,9.039-1.582
			c3.18,0,6.748,0.693,10.409,2.862c10.257,6.086,40.789,6.086,51.046,0c7.919-4.693,15.416-2.476,19.468-1.275
			c8.122,2.405,12.385,18.502,17.785,38.881c0.671,2.529,1.36,5.134,2.08,7.799C149.101,173.612,147.804,189.817,143.973,196.454z"
			/>
	</g>
</g>
<g>
	<g>
		<rect x="40.96" y="121.171" width="6.827" height="27.307"/>
	</g>
</g>
<g>
	<g>
		<path d="M110.933,121.166c-8.47,0-15.36,6.89-15.36,15.36c0,8.47,6.89,15.36,15.36,15.36c8.47,0,15.36-6.89,15.36-15.36
			C126.293,128.056,119.404,121.166,110.933,121.166z M110.933,145.06c-4.705,0-8.533-3.828-8.533-8.533
			c0-4.705,3.828-8.533,8.533-8.533c4.705,0,8.533,3.828,8.533,8.533C119.467,141.232,115.639,145.06,110.933,145.06z"/>
	</g>
</g>
<g>
	<g>
		<path d="M182.613,76.793c-6.586,0-11.947,5.361-11.947,11.947c0,6.586,5.361,11.947,11.947,11.947
			c6.586,0,11.947-5.361,11.947-11.947C194.56,82.154,189.199,76.793,182.613,76.793z M182.613,93.86c-2.823,0-5.12-2.297-5.12-5.12
			c0-2.823,2.297-5.12,5.12-5.12c2.823,0,5.12,2.297,5.12,5.12C187.733,91.563,185.436,93.86,182.613,93.86z"/>
	</g>
</g>
<g>
	<g>
		<rect x="30.72" y="131.412" width="27.307" height="6.827"/>
	</g>
</g>
<g>
</g>
<g>
</g>
<g>
</g>
<g>
</g>
<g>
</g>
<g>
</g>
<g>
</g>
<g>
</g>
<g>
</g>
<g>
</g>
<g>
</g>
<g>
</g>
<g>
</g>
<g>
</g>
<g>
</g>
</svg>
