<svg data-v-423bf9ae="" xmlns="http://www.w3.org/2000/svg" viewBox="0 0 206.50514342613516 60" class="font"><!----><!----><defs data-v-423bf9ae=""><linearGradient data-v-423bf9ae="" gradientTransform="rotate(25)" id="4b58958a-2acd-4c2e-9d5a-f77912246f1a" x1="0%" y1="0%" x2="100%" y2="0%"><stop data-v-423bf9ae="" offset="0%" style="stop-color: rgb(40, 139, 88); stop-opacity: 1;"></stop><stop data-v-423bf9ae="" offset="100%" style="stop-color: rgb(21, 34, 241); stop-opacity: 1;"></stop></linearGradient></defs><g data-v-423bf9ae="" id="1a46b1d9-ad27-4e78-9c55-4b4249c2906a" fill="url(#4b58958a-2acd-4c2e-9d5a-f77912246f1a)" transform="matrix(4.160887634018687,0,0,4.160887634018687,-3.495148385128772,-16.061026346013406)"><path d="M3.35 11.21L3.21 13.83L3.21 13.83Q3.21 14.66 1.60 14.66L1.60 14.66L1.60 14.66Q1.25 14.66 1.18 14.30L1.18 14.30L1.18 14.30Q1.12 13.94 1.12 13.30L1.12 13.30L1.12 13.30Q1.12 11.94 1.67 9.94L1.67 9.94L1.67 9.94Q2.58 6.64 3.61 6.05L3.61 6.05L3.61 6.05Q3.75 5.96 3.92 5.96L3.92 5.96L3.92 5.96Q4.09 5.96 4.09 6.51L4.09 6.51L4.09 6.51Q4.09 7.06 4.03 7.48L4.03 7.48L4.03 7.48Q3.92 8.32 3.63 9.65L3.63 9.65L3.63 9.65Q3.35 10.98 3.35 11.21L3.35 11.21ZM4.16 10.07L4.16 10.07L4.16 10.07Q4.16 9.88 4.36 9.83L4.36 9.83L4.36 9.83Q4.56 9.77 4.87 9.72L4.87 9.72L4.87 9.72Q5.18 9.67 5.54 9.58L5.54 9.58L5.54 9.58Q5.91 9.48 6.22 9.21L6.22 9.21L6.22 9.21Q6.93 8.60 6.93 7.15L6.93 7.15L6.93 7.15Q6.93 6.23 6.31 5.74L6.31 5.74L6.31 5.74Q5.68 5.25 4.51 5.25L4.51 5.25L4.51 5.25Q3.35 5.25 2.32 5.74L2.32 5.74L2.32 5.74Q1.95 5.92 1.65 6.08L1.65 6.08L1.65 6.08Q1.34 6.23 1.09 6.23L1.09 6.23L1.09 6.23Q0.84 6.23 0.84 6.08L0.84 6.08L0.84 6.08Q0.84 5.84 1.30 5.29L1.30 5.29L1.30 5.29Q1.76 4.79 2.77 4.35L2.77 4.35L2.77 4.35Q3.77 3.92 4.87 3.92L4.87 3.92L4.87 3.92Q6.96 3.91 8.12 4.90L8.12 4.90L8.12 4.90Q9.13 5.77 9.13 7.15L9.13 7.15L9.13 7.15Q9.13 8.53 8.13 9.61L8.13 9.61L8.13 9.61Q7.14 10.70 5.65 10.70L5.65 10.70L5.65 10.70Q4.16 10.70 4.16 10.07ZM12.75 13.43L12.75 13.43L12.75 13.43Q12.05 14.39 10.88 14.39L10.88 14.39L10.88 14.39Q9.93 14.39 9.36 13.99L9.36 13.99L9.36 13.99Q8.79 13.59 8.79 12.73L8.79 12.73L8.79 12.73Q8.79 12.36 8.90 12.05L8.90 12.05L8.90 12.05Q9.00 11.75 9.24 11.30L9.24 11.30L9.65 7.98L9.65 7.98Q10.08 7.64 10.82 7.64L10.82 7.64L10.82 7.64Q11.45 7.64 11.54 8.48L11.54 8.48L11.54 8.48Q11.56 8.74 11.56 9.08L11.56 9.08L11.56 9.08Q11.56 9.42 11.45 9.80L11.45 9.80L11.45 9.80Q10.89 11.73 10.91 12.39L10.91 12.39L10.91 12.39Q10.91 12.89 11.49 12.89L11.49 12.89L11.49 12.89Q12.08 12.89 12.36 12.52L12.36 12.52L12.36 12.52Q12.64 12.14 12.84 11.58L12.84 11.58L12.84 11.58Q13.20 10.02 13.52 9.02L13.52 9.02L13.52 9.02Q13.83 8.01 13.92 7.81L13.92 7.81L13.92 7.81Q14.06 7.48 14.45 7.46L14.45 7.46L14.45 7.46Q14.84 7.48 15.19 8.02L15.19 8.02L15.19 8.02Q15.54 8.55 15.54 8.85L15.54 8.85L15.54 8.85Q15.51 9.83 14.32 13.79L14.32 13.79L14.32 13.79Q15.23 13.08 16.13 12.04L16.13 12.04L16.13 12.04Q16.44 11.68 16.65 11.43L16.65 11.43L16.65 11.43Q16.86 11.19 16.98 11.19L16.98 11.19L16.98 11.19Q17.18 11.19 17.18 11.63L17.18 11.63L17.18 11.63Q17.18 12.52 16.19 13.69L16.19 13.69L16.19 13.69Q15.20 14.87 13.78 15.53L13.78 15.53L13.78 15.53Q13.61 16.09 13.41 16.59L13.41 16.59L13.41 16.59Q13.22 17.09 12.91 17.47L12.91 17.47L12.91 17.47Q12.24 18.28 10.86 18.28L10.86 18.28L10.86 18.28Q9.94 18.28 9.29 17.75L9.29 17.75L9.29 17.75Q8.64 17.22 8.64 16.42L8.64 16.42L8.64 16.42Q8.64 15.97 8.94 15.71L8.94 15.71L8.94 15.71Q9.24 15.44 9.77 15.27L9.77 15.27L9.77 15.27Q10.29 15.09 10.99 14.96L10.99 14.96L10.99 14.96Q11.69 14.83 12.49 14.63L12.49 14.63L12.49 14.63Q12.68 13.79 12.75 13.43ZM10.85 17.21L10.85 17.21L10.85 17.21Q11.51 17.21 12.04 16.06L12.04 16.06L12.04 16.06Q11.54 16.16 11.14 16.21L11.14 16.21L11.14 16.21Q10.75 16.25 10.47 16.30L10.47 16.30L10.47 16.30Q9.91 16.38 9.93 16.59L9.93 16.59L9.93 16.59Q9.93 16.86 10.24 17.04L10.24 17.04L10.24 17.04Q10.56 17.22 10.85 17.21ZM25.21 11.14L25.21 11.14L25.21 11.14Q25.42 11.14 25.42 11.62L25.42 11.62L25.42 11.62Q25.42 12.61 24.50 13.54L24.50 13.54L24.50 13.54Q23.58 14.48 22.25 14.49L22.25 14.49L22.25 14.49Q21.31 14.49 20.08 13.75L20.08 13.75L20.08 13.75Q19.19 14.69 17.88 14.69L17.88 14.69L17.88 14.69Q17.01 14.69 16.60 14.25L16.60 14.25L16.60 14.25Q16.20 13.82 16.20 13.10L16.20 13.10L16.20 13.10Q16.20 12.39 16.72 12.03L16.72 12.03L16.72 12.03Q17.25 11.68 18.06 11.68L18.06 11.68L18.06 11.68Q18.49 11.68 18.87 11.72L18.87 11.72L18.87 11.72Q18.87 10.01 19.25 8.39L19.25 8.39L19.25 8.39Q18.79 8.15 18.46 7.85L18.46 7.85L18.46 7.85Q18.13 7.56 18.13 7.39L18.13 7.39L18.13 7.39Q18.13 6.94 18.33 6.94L18.33 6.94L18.33 6.94Q18.61 6.94 18.91 7.11L18.91 7.11L18.91 7.11Q19.21 7.27 19.56 7.35L19.56 7.35L19.56 7.35Q20.43 4.84 21.94 4.12L21.94 4.12L21.94 4.12Q22.47 3.86 23.06 3.86L23.06 3.86L23.06 3.86Q25.27 3.86 25.27 5.73L25.27 5.73L25.27 5.73Q25.27 6.79 24.47 7.56L24.47 7.56L24.47 7.56Q23.37 8.62 21.11 8.68L21.11 8.68L21.11 8.68Q20.96 9.86 20.96 11.47L20.96 11.47L20.96 11.47Q20.96 11.86 20.86 12.35L20.86 12.35L20.86 12.35Q21.35 12.60 21.81 12.81L21.81 12.81L21.81 12.81Q22.27 13.02 22.95 13.02L22.95 13.02L22.95 13.02Q23.30 13.02 23.64 12.73L23.64 12.73L23.64 12.73Q23.98 12.43 24.28 12.08L24.28 12.08L24.28 12.08Q24.58 11.73 24.82 11.44L24.82 11.44L24.82 11.44Q25.06 11.14 25.21 11.14ZM23.03 5.24L23.03 5.24L23.03 5.24Q21.85 5.24 21.32 7.48L21.32 7.48L21.32 7.48Q22.33 7.39 23.02 6.91L23.02 6.91L23.02 6.91Q23.72 6.43 23.72 5.94L23.72 5.94L23.72 5.94Q23.72 5.24 23.03 5.24ZM17.56 13.20L17.56 13.20L17.56 13.20Q17.57 13.59 18.10 13.59L18.10 13.59L18.10 13.59Q18.63 13.59 18.77 12.98L18.77 12.98L18.77 12.98Q18.38 12.78 18.13 12.78L18.13 12.78L18.13 12.78Q17.57 12.78 17.56 13.20ZM39.94 11.14L39.94 11.14L39.94 11.14Q40.18 11.14 40.18 11.79L40.18 11.79L40.18 11.79Q40.18 12.14 39.89 12.63L39.89 12.63L39.89 12.63Q39.59 13.13 39.12 13.54L39.12 13.54L39.12 13.54Q38.65 13.96 38.08 14.22L38.08 14.22L38.08 14.22Q37.51 14.49 36.87 14.49L36.87 14.49L36.87 14.49Q36.23 14.49 35.88 14.08L35.88 14.08L35.88 14.08Q35.52 13.66 35.52 13.15L35.52 13.15L35.52 13.15Q35.52 12.64 35.69 12.00L35.69 12.00L35.69 12.00Q35.85 11.35 36.05 10.65L36.05 10.65L36.05 10.65Q36.58 8.79 36.60 8.04L36.60 8.04L36.60 8.04Q36.60 7.71 36.51 7.54L36.51 7.54L36.51 7.54Q36.43 7.36 36.19 7.36L36.19 7.36L36.19 7.36Q35.77 7.36 35.29 7.87L35.29 7.87L35.29 7.87Q34.82 8.37 34.40 9.16L34.40 9.16L34.40 9.16Q33.43 10.95 33.38 12.66L33.38 12.66L33.38 12.66Q33.40 12.85 33.43 13.05L33.43 13.05L33.43 13.05Q33.46 13.24 33.46 13.47L33.46 13.47L33.46 13.47Q33.46 13.92 33.02 14.29L33.02 14.29L33.02 14.29Q32.58 14.66 32.03 14.66L32.03 14.66L32.03 14.66Q31.71 14.66 31.56 14.34L31.56 14.34L31.56 14.34Q31.40 14.03 31.40 13.57L31.40 13.57L31.40 13.57Q31.40 13.10 31.61 12.31L31.61 12.31L31.61 12.31Q31.82 11.51 32.07 10.61L32.07 10.61L32.07 10.61Q32.75 8.25 32.76 7.08L32.76 7.08L32.76 7.08Q32.76 6.50 32.61 6.16L32.61 6.16L32.61 6.16Q32.47 5.82 32.05 5.82L32.05 5.82L32.05 5.82Q31.29 5.82 30.55 6.90L30.55 6.90L30.55 6.90Q29.81 7.98 29.22 10.25L29.22 10.25L29.22 10.25Q29.06 10.84 28.98 11.27L28.98 11.27L28.97 11.54L28.97 11.54Q29.23 12.82 29.23 13.22L29.23 13.22L29.23 13.22Q29.23 14.03 28.66 14.31L28.66 14.31L28.66 14.31Q28.39 14.43 28.15 14.55L28.15 14.55L28.15 14.55Q27.90 14.66 27.62 14.66L27.62 14.66L27.62 14.66Q26.92 14.66 26.92 13.32L26.92 13.32L26.92 13.32Q26.92 11.98 27.66 8.09L27.66 8.09L27.66 8.09Q27.93 6.69 27.93 6.52L27.93 6.52L27.93 6.52Q27.93 5.39 27.36 5.39L27.36 5.39L27.36 5.39Q27.16 5.39 27.00 5.50L27.00 5.50L27.00 5.50Q26.84 5.61 26.68 5.74L26.68 5.74L26.68 5.74Q26.52 5.87 26.35 5.98L26.35 5.98L26.35 5.98Q26.18 6.09 25.96 6.09L25.96 6.09L25.96 6.09Q25.75 6.09 25.75 5.71L25.75 5.71L25.75 5.71Q25.75 4.94 26.46 4.45L26.46 4.45L26.46 4.45Q27.15 3.95 28.13 3.95L28.13 3.95L28.13 3.95Q29.39 3.95 29.61 5.12L29.61 5.12L29.61 5.12Q29.67 5.47 29.69 5.87L29.69 5.87L29.69 5.87Q30.73 3.92 32.31 3.92L32.31 3.92L32.31 3.92Q34.03 3.92 34.29 5.57L34.29 5.57L34.29 5.57Q34.37 6.05 34.36 6.59L34.36 6.59L34.36 6.71L34.36 6.71Q35.27 5.45 36.51 5.45L36.51 5.45L36.51 5.45Q38.28 5.45 38.28 7.57L38.28 7.57L38.28 7.57Q38.28 8.50 37.99 9.74L37.99 9.74L37.99 9.74Q37.70 10.98 37.57 11.52L37.57 11.52L37.57 11.52Q37.44 12.05 37.44 12.35L37.44 12.35L37.44 12.35Q37.44 12.88 37.81 12.88L37.81 12.88L37.81 12.88Q38.18 12.88 39.58 11.42L39.58 11.42L39.58 11.42Q39.83 11.14 39.94 11.14ZM40.11 12.03L40.11 12.03Q40.11 11.86 40.33 11.86L40.33 11.86L40.33 11.86Q40.56 11.86 41.72 12.17L41.72 12.17L41.72 12.17Q41.99 9.87 43.22 7.18L43.22 7.18L43.22 7.18Q43.65 6.20 44.25 6.20L44.25 6.20L44.25 6.20Q44.37 6.20 44.47 6.44L44.47 6.44L44.47 6.44Q44.58 6.68 44.58 7.03L44.58 7.03L44.58 7.03Q44.58 7.45 44.14 9.34L44.14 9.34L44.14 9.34Q43.69 11.23 43.55 12.63L43.55 12.63L43.55 12.63Q44.48 12.84 45.19 12.84L45.19 12.84L45.19 12.84Q45.89 12.84 46.48 12.47L46.48 12.47L46.48 12.47Q47.07 12.10 47.49 11.51L47.49 11.51L47.49 11.51Q48.36 10.26 48.36 8.51L48.36 8.51L48.36 8.51Q48.34 5.28 45.78 5.28L45.78 5.28L45.78 5.28Q44.87 5.29 42.56 6.09L42.56 6.09L42.56 6.09Q42.11 6.24 41.78 6.24L41.78 6.24L41.78 6.24Q41.44 6.24 41.44 6.05L41.44 6.05L41.44 6.05Q41.44 5.78 41.83 5.42L41.83 5.42L41.83 5.42Q42.22 5.05 42.84 4.72L42.84 4.72L42.84 4.72Q44.35 3.91 45.78 3.91L45.78 3.91L45.78 3.91Q47.74 3.91 49.00 4.96L49.00 4.96L49.00 4.96Q50.48 6.20 50.47 8.74L50.47 8.74L50.47 8.74Q50.47 9.81 50.13 10.86L50.13 10.86L50.13 10.86Q49.80 11.91 49.11 12.73L49.11 12.73L49.11 12.73Q48.43 13.55 47.38 14.06L47.38 14.06L47.38 14.06Q46.33 14.56 44.90 14.56L44.90 14.56L44.90 14.56Q44.32 14.56 43.44 14.31L43.44 14.31L43.44 14.31Q43.34 14.57 42.95 14.57L42.95 14.57L42.95 14.57Q42.22 14.57 41.97 14.33L41.97 14.33L41.97 14.33Q41.71 14.08 41.66 13.52L41.66 13.52L41.66 13.52Q40.99 13.15 40.55 12.74L40.55 12.74L40.55 12.74Q40.11 12.33 40.11 12.03L40.11 12.03Z"></path></g><!----><!----></svg>